<?xml version="1.0" encoding="UTF-8" standalone="no"?>
<svg
   viewBox="0 0 640 640"
   version="1.1"
   id="svg1"
   sodipodi:docname="exclamation-solid-full.svg"
   inkscape:version="1.4.2 (1:1.4.2+202505120737+ebf0e940d0)"
   xmlns:inkscape="http://www.inkscape.org/namespaces/inkscape"
   xmlns:sodipodi="http://sodipodi.sourceforge.net/DTD/sodipodi-0.dtd"
   xmlns="http://www.w3.org/2000/svg"
   xmlns:svg="http://www.w3.org/2000/svg">
  <defs
     id="defs1" />
  <sodipodi:namedview
     id="namedview1"
     pagecolor="#505050"
     bordercolor="#eeeeee"
     borderopacity="1"
     inkscape:showpageshadow="0"
     inkscape:pageopacity="0"
     inkscape:pagecheckerboard="0"
     inkscape:deskcolor="#505050"
     inkscape:zoom="1.3234375"
     inkscape:cx="320.3778"
     inkscape:cy="320"
     inkscape:window-width="1856"
     inkscape:window-height="1056"
     inkscape:window-x="0"
     inkscape:window-y="0"
     inkscape:window-maximized="1"
     inkscape:current-layer="svg1" />
  <!--!Font Awesome Free 7.0.1 by @fontawesome - https://fontawesome.com License - https://fontawesome.com/license/free Copyright 2025 Fonticons, Inc.-->
  <path
     d="M320 496C342.1 496 360 513.9 360 536C360 558.1 342.1 576 320 576C297.9 576 280 558.1 280 536C280 513.9 297.9 496 320 496zM320 64C346.5 64 368 85.5 368 112C368 112.6 368 113.1 368 113.7L352 417.7C351.1 434.7 337 448 320 448C303 448 289 434.7 288 417.7L272 113.7C272 113.1 272 112.6 272 112C272 85.5 293.5 64 320 64z"
     id="path1"
     style="fill:#ffffff;fill-opacity:1" />
</svg>
